<svg width="16" height="16" viewBox="0 0 16 16" fill="none" xmlns="http://www.w3.org/2000/svg">
    <path d="M13.3864 4.55319C13.449 4.49009 13.5342 4.45459 13.623 4.45459C13.7119 4.45459 13.7971 4.49009 13.8597 4.55319L14.5664 5.25986C14.6308 5.32034 14.6674 5.4048 14.6674 5.49319C14.6674 5.58158 14.6308 5.66603 14.5664 5.72652L8.43971 11.8532C8.34603 11.947 8.21894 11.9997 8.08638 11.9999H7.91304C7.78048 11.9997 7.65339 11.947 7.55971 11.8532L1.43304 5.72652C1.36859 5.66603 1.33203 5.58158 1.33203 5.49319C1.33203 5.4048 1.36859 5.32034 1.43304 5.25986L2.13971 4.55319C2.2023 4.49009 2.2875 4.45459 2.37638 4.45459C2.46526 4.45459 2.55045 4.49009 2.61304 4.55319L7.99971 9.93986L13.3864 4.55319Z" fill="#4C4C4C"/>
    </svg>
    