<svg width="16" height="16" viewBox="0 0 16 16" fill="none" xmlns="http://www.w3.org/2000/svg">
    <path d="M2.61304 11.4467C2.55045 11.5098 2.46526 11.5453 2.37638 11.5453C2.2875 11.5453 2.2023 11.5098 2.13971 11.4467L1.43304 10.74C1.36859 10.6795 1.33203 10.5951 1.33203 10.5067C1.33203 10.4183 1.36859 10.3338 1.43304 10.2733L7.55971 4.14667C7.65339 4.05287 7.78048 4.00012 7.91304 4H8.08638C8.21894 4.00012 8.34603 4.05287 8.43971 4.14667L14.5664 10.2733C14.6308 10.3338 14.6674 10.4183 14.6674 10.5067C14.6674 10.5951 14.6308 10.6795 14.5664 10.74L13.8597 11.4467C13.7971 11.5098 13.7119 11.5453 13.623 11.5453C13.5342 11.5453 13.449 11.5098 13.3864 11.4467L7.99971 6.06L2.61304 11.4467Z" fill="#4C4C4C"/>
    </svg>
    