<svg width="16" height="16" viewBox="0 0 16 16" fill="none" xmlns="http://www.w3.org/2000/svg">
    <path d="M4.55343 2.61329C4.49033 2.5507 4.45483 2.4655 4.45483 2.37662C4.45483 2.28774 4.49033 2.20254 4.55343 2.13995L5.2601 1.43329C5.32059 1.36884 5.40504 1.33228 5.49343 1.33228C5.58182 1.33228 5.66628 1.36884 5.72677 1.43329L11.8534 7.55995C11.9472 7.65363 12 7.78072 12.0001 7.91329V8.08662C12 8.21918 11.9472 8.34628 11.8534 8.43995L5.72677 14.5666C5.66628 14.6311 5.58182 14.6676 5.49343 14.6676C5.40504 14.6676 5.32059 14.6311 5.2601 14.5666L4.55343 13.86C4.49033 13.7974 4.45483 13.7122 4.45483 13.6233C4.45483 13.5344 4.49033 13.4492 4.55343 13.3866L9.9401 7.99995L4.55343 2.61329Z" fill="#A7A7A7"/>
</svg>
