<svg width="13" height="12" viewBox="0 0 13 12" fill="none" xmlns="http://www.w3.org/2000/svg">
    <path fill-rule="evenodd" clip-rule="evenodd" d="M1.5 6C1.5 3.23858 3.73858 1 6.5 1C7.82608 1 9.09785 1.52678 10.0355 2.46447C10.9732 3.40215 11.5 4.67392 11.5 6C11.5 8.76142 9.26142 11 6.5 11C3.73858 11 1.5 8.76142 1.5 6ZM8.12079 7.105C8.12079 7.03871 8.09337 6.97537 8.04503 6.93L7.12003 6L8.04503 5.07C8.09337 5.02463 8.12079 4.96129 8.12079 4.895C8.12079 4.82871 8.09337 4.76537 8.04503 4.72L7.78003 4.455C7.73466 4.40666 7.67132 4.37924 7.60503 4.37924C7.53874 4.37924 7.4754 4.40666 7.43003 4.455L6.50003 5.38L5.57003 4.455C5.52466 4.40666 5.46132 4.37924 5.39503 4.37924C5.32874 4.37924 5.2654 4.40666 5.22003 4.455L4.95503 4.72C4.90669 4.76537 4.87927 4.82871 4.87927 4.895C4.87927 4.96129 4.90669 5.02463 4.95503 5.07L5.88003 6L4.95503 6.93C4.90669 6.97537 4.87927 7.03871 4.87927 7.105C4.87927 7.17129 4.90669 7.23463 4.95503 7.28L5.22003 7.545C5.2654 7.59334 5.32874 7.62076 5.39503 7.62076C5.46132 7.62076 5.52466 7.59334 5.57003 7.545L6.50003 6.62L7.43003 7.545C7.4754 7.59334 7.53874 7.62076 7.60503 7.62076C7.67132 7.62076 7.73466 7.59334 7.78003 7.545L8.04503 7.28C8.09337 7.23463 8.12079 7.17129 8.12079 7.105Z" fill="#052F5F"/>
</svg>
