<svg width="12" height="12" viewBox="0 0 12 12" fill="none" xmlns="http://www.w3.org/2000/svg">
    <path d="M6 9.375C5.795 9.375 5.625 9.205 5.625 9V7.5C5.625 7.295 5.795 7.125 6 7.125C6.205 7.125 6.375 7.295 6.375 7.5V9C6.375 9.205 6.205 9.375 6 9.375Z" fill="#0D6EFD"/>
    <path d="M8.8 11.2799H3.2C2.29 11.2799 1.46 10.5799 1.31 9.68491L0.645003 5.69991C0.535003 5.07991 0.840003 4.28491 1.335 3.88991L4.8 1.11491C5.47 0.574911 6.525 0.579911 7.2 1.11991L10.665 3.88991C11.155 4.28491 11.455 5.07991 11.355 5.69991L10.69 9.67991C10.54 10.5649 9.69 11.2799 8.8 11.2799ZM5.995 1.46491C5.73 1.46491 5.465 1.54491 5.27 1.69991L1.805 4.47991C1.525 4.70491 1.325 5.22491 1.385 5.57991L2.05 9.55991C2.14 10.0849 2.665 10.5299 3.2 10.5299H8.8C9.335 10.5299 9.86 10.0849 9.95 9.55491L10.615 5.57491C10.67 5.22491 10.47 4.69491 10.195 4.47491L6.73 1.70491C6.53 1.54491 6.26 1.46491 5.995 1.46491Z" fill="#0D6EFD"/>
</svg>
