<svg width="24" height="24" viewBox="0 0 24 24" fill="none" xmlns="http://www.w3.org/2000/svg">
    <path opacity="0.4" d="M12 22C17.5228 22 22 17.5228 22 12C22 6.47715 17.5228 2 12 2C6.47715 2 2 6.47715 2 12C2 17.5228 6.47715 22 12 22Z" fill="#0D6EFD"/>
    <path d="M10.58 15.5801C10.38 15.5801 10.19 15.5001 10.05 15.3601L7.22 12.5301C6.93 12.2401 6.93 11.7601 7.22 11.4701C7.51 11.1801 7.99 11.1801 8.28 11.4701L10.58 13.7701L15.72 8.6301C16.01 8.3401 16.49 8.3401 16.78 8.6301C17.07 8.9201 17.07 9.4001 16.78 9.6901L11.11 15.3601C10.97 15.5001 10.78 15.5801 10.58 15.5801Z" fill="#0D6EFD"/>
</svg>
