<svg width="24" height="24" viewBox="0 0 24 24" fill="none" xmlns="http://www.w3.org/2000/svg">
    <path d="M2.71008 17.0202L4.45008 13.5402C4.93008 12.5702 4.93008 11.4402 4.45008 10.4702L2.71008 6.98022C1.22008 4.00022 4.43008 0.850218 7.38008 2.41022L8.92008 3.23022C9.14008 3.34022 9.31008 3.52022 9.40008 3.74022L15.0901 16.3902C15.3201 16.9102 15.1101 17.5202 14.6101 17.7802L7.37008 21.5902C4.43008 23.1502 1.22008 20.0002 2.71008 17.0202Z" fill="white"/>
    <path opacity="0.4" d="M16.3102 15.6L12.5802 7.31996C12.1602 6.38996 13.1602 5.44996 14.0602 5.92996L19.8302 8.96996C22.2802 10.26 22.2802 13.76 19.8302 15.05L17.7902 16.12C17.2402 16.4 16.5702 16.17 16.3102 15.6Z" fill="white"/>
</svg>
