<svg width="24" height="24" viewBox="0 0 24 24" fill="none" xmlns="http://www.w3.org/2000/svg">
    <path d="M6.18981 22.0598C5.18981 22.0598 4.21981 21.6698 3.44981 20.9198C2.19981 19.6998 1.89981 17.8998 2.67981 16.3398L4.29981 13.0998C4.63981 12.4198 4.63981 11.5998 4.29981 10.9098L2.67981 7.65985C1.89981 6.09985 2.19981 4.29985 3.44981 3.07985C4.69981 1.85985 6.49981 1.58985 8.04981 2.40985L19.6398 8.50985C20.9398 9.18985 21.7498 10.5298 21.7498 11.9998C21.7498 13.4698 20.9398 14.8098 19.6398 15.4898L8.04981 21.5898C7.44981 21.9098 6.81981 22.0598 6.18981 22.0598ZM6.19981 3.43985C5.50981 3.43985 4.90981 3.75985 4.49981 4.15985C3.87981 4.75985 3.43981 5.82985 4.01981 6.99985L5.63981 10.2398C6.18981 11.3498 6.18981 12.6598 5.63981 13.7698L4.01981 17.0098C3.42981 18.1798 3.87981 19.2498 4.49981 19.8498C5.11981 20.4498 6.18981 20.8798 7.34981 20.2698L18.9398 14.1698C19.7598 13.7398 20.2498 12.9298 20.2498 12.0098C20.2498 11.0898 19.7598 10.2798 18.9398 9.84985L7.34981 3.72985C6.94981 3.51985 6.55981 3.43985 6.19981 3.43985Z" fill="white"/>
</svg>
