<svg width="24" height="24" viewBox="0 0 24 24" fill="none" xmlns="http://www.w3.org/2000/svg">
    <path d="M11.9999 16.3299C9.60992 16.3299 7.66992 14.3899 7.66992 11.9999C7.66992 9.60992 9.60992 7.66992 11.9999 7.66992C14.3899 7.66992 16.3299 9.60992 16.3299 11.9999C16.3299 14.3899 14.3899 16.3299 11.9999 16.3299ZM11.9999 9.16992C10.4399 9.16992 9.16992 10.4399 9.16992 11.9999C9.16992 13.5599 10.4399 14.8299 11.9999 14.8299C13.5599 14.8299 14.8299 13.5599 14.8299 11.9999C14.8299 10.4399 13.5599 9.16992 11.9999 9.16992Z" fill="#292D32"/>
    <path d="M12.0001 21.0205C8.24008 21.0205 4.69008 18.8205 2.25008 15.0005C1.19008 13.3505 1.19008 10.6605 2.25008 9.00047C4.70008 5.18047 8.25008 2.98047 12.0001 2.98047C15.7501 2.98047 19.3001 5.18047 21.7401 9.00047C22.8001 10.6505 22.8001 13.3405 21.7401 15.0005C19.3001 18.8205 15.7501 21.0205 12.0001 21.0205ZM12.0001 4.48047C8.77008 4.48047 5.68008 6.42047 3.52008 9.81047C2.77008 10.9805 2.77008 13.0205 3.52008 14.1905C5.68008 17.5805 8.77008 19.5205 12.0001 19.5205C15.2301 19.5205 18.3201 17.5805 20.4801 14.1905C21.2301 13.0205 21.2301 10.9805 20.4801 9.81047C18.3201 6.42047 15.2301 4.48047 12.0001 4.48047Z" fill="#292D32"/>
</svg>
