
<svg width="16" height="16" viewBox="0 0 16 16" fill="none" xmlns="http://www.w3.org/2000/svg">
    <path d="M13.3869 4.55319C13.4495 4.49009 13.5347 4.45459 13.6235 4.45459C13.7124 4.45459 13.7976 4.49009 13.8602 4.55319L14.5669 5.25986C14.6313 5.32034 14.6679 5.4048 14.6679 5.49319C14.6679 5.58158 14.6313 5.66603 14.5669 5.72652L8.4402 11.8532C8.34652 11.947 8.21943 11.9997 8.08687 11.9999H7.91353C7.78097 11.9997 7.65388 11.947 7.5602 11.8532L1.43353 5.72652C1.36908 5.66603 1.33252 5.58158 1.33252 5.49319C1.33252 5.4048 1.36908 5.32034 1.43353 5.25986L2.1402 4.55319C2.20279 4.49009 2.28799 4.45459 2.37687 4.45459C2.46574 4.45459 2.55094 4.49009 2.61353 4.55319L8.0002 9.93986L13.3869 4.55319Z" fill="#A7A7A7"/>
</svg>
