<svg width="16" height="16" viewBox="0 0 16 16" fill="none" xmlns="http://www.w3.org/2000/svg">
    <path d="M12 7.16683C11.7267 7.16683 11.5 6.94016 11.5 6.66683V5.3335C11.5 3.2335 10.9067 1.8335 8 1.8335C5.09333 1.8335 4.5 3.2335 4.5 5.3335V6.66683C4.5 6.94016 4.27333 7.16683 4 7.16683C3.72667 7.16683 3.5 6.94016 3.5 6.66683V5.3335C3.5 3.40016 3.96667 0.833496 8 0.833496C12.0333 0.833496 12.5 3.40016 12.5 5.3335V6.66683C12.5 6.94016 12.2733 7.16683 12 7.16683Z" fill="white"/>
    <path d="M8.00016 12.8333C6.80683 12.8333 5.8335 11.86 5.8335 10.6667C5.8335 9.47333 6.80683 8.5 8.00016 8.5C9.1935 8.5 10.1668 9.47333 10.1668 10.6667C10.1668 11.86 9.1935 12.8333 8.00016 12.8333ZM8.00016 9.5C7.36016 9.5 6.8335 10.0267 6.8335 10.6667C6.8335 11.3067 7.36016 11.8333 8.00016 11.8333C8.64016 11.8333 9.16683 11.3067 9.16683 10.6667C9.16683 10.0267 8.64016 9.5 8.00016 9.5Z" fill="white"/>
    <path d="M11.3335 15.1665H4.66683C1.72683 15.1665 0.833496 14.2732 0.833496 11.3332V9.99984C0.833496 7.05984 1.72683 6.1665 4.66683 6.1665H11.3335C14.2735 6.1665 15.1668 7.05984 15.1668 9.99984V11.3332C15.1668 14.2732 14.2735 15.1665 11.3335 15.1665ZM4.66683 7.1665C2.28016 7.1665 1.8335 7.61984 1.8335 9.99984V11.3332C1.8335 13.7132 2.28016 14.1665 4.66683 14.1665H11.3335C13.7202 14.1665 14.1668 13.7132 14.1668 11.3332V9.99984C14.1668 7.61984 13.7202 7.1665 11.3335 7.1665H4.66683Z" fill="white"/>
</svg>
